<mxfile host="app.diagrams.net" agent="Mozilla/5.0 (Windows NT 10.0; Win64; x64) AppleWebKit/537.36 (KHTML, like Gecko) Chrome/137.0.0.0 Safari/537.36 Edg/137.0.0.0" version="27.1.6">
  <diagram id="C5RBs43oDa-KdzZeNtuy" name="Page-1">
    <mxGraphModel dx="2141" dy="1872" grid="1" gridSize="10" guides="1" tooltips="1" connect="1" arrows="1" fold="1" page="1" pageScale="1" pageWidth="827" pageHeight="1169" math="0" shadow="0">
      <root>
        <mxCell id="WIyWlLk6GJQsqaUBKTNV-0" />
        <mxCell id="WIyWlLk6GJQsqaUBKTNV-1" parent="WIyWlLk6GJQsqaUBKTNV-0" />
        <mxCell id="CoTOya8PfzWXsymFgDKM-0" value="Course" style="swimlane;whiteSpace=wrap;html=1;startSize=30;" parent="WIyWlLk6GJQsqaUBKTNV-1" vertex="1">
          <mxGeometry x="180" y="-100" width="200" height="300" as="geometry" />
        </mxCell>
        <mxCell id="CoTOya8PfzWXsymFgDKM-3" value="Course" style="rounded=0;whiteSpace=wrap;html=1;" parent="CoTOya8PfzWXsymFgDKM-0" vertex="1">
          <mxGeometry y="30" width="200" height="40" as="geometry" />
        </mxCell>
        <mxCell id="CoTOya8PfzWXsymFgDKM-6" value="Subject Couse" style="rounded=0;whiteSpace=wrap;html=1;" parent="CoTOya8PfzWXsymFgDKM-0" vertex="1">
          <mxGeometry y="70" width="200" height="40" as="geometry" />
        </mxCell>
        <mxCell id="CoTOya8PfzWXsymFgDKM-7" value="Subject Code" style="rounded=0;whiteSpace=wrap;html=1;" parent="CoTOya8PfzWXsymFgDKM-0" vertex="1">
          <mxGeometry y="110" width="200" height="40" as="geometry" />
        </mxCell>
        <mxCell id="CoTOya8PfzWXsymFgDKM-8" value="Program course" style="rounded=0;whiteSpace=wrap;html=1;" parent="CoTOya8PfzWXsymFgDKM-0" vertex="1">
          <mxGeometry y="150" width="200" height="50" as="geometry" />
        </mxCell>
        <mxCell id="CoTOya8PfzWXsymFgDKM-10" value="Subject Name" style="rounded=0;whiteSpace=wrap;html=1;" parent="CoTOya8PfzWXsymFgDKM-0" vertex="1">
          <mxGeometry y="200" width="200" height="50" as="geometry" />
        </mxCell>
        <mxCell id="CoTOya8PfzWXsymFgDKM-16" value="Lecture Name" style="rounded=0;whiteSpace=wrap;html=1;" parent="CoTOya8PfzWXsymFgDKM-0" vertex="1">
          <mxGeometry y="250" width="200" height="50" as="geometry" />
        </mxCell>
        <mxCell id="CoTOya8PfzWXsymFgDKM-1" value="Subject&amp;nbsp;" style="swimlane;whiteSpace=wrap;html=1;" parent="WIyWlLk6GJQsqaUBKTNV-1" vertex="1">
          <mxGeometry x="180" y="240" width="200" height="200" as="geometry" />
        </mxCell>
        <mxCell id="CoTOya8PfzWXsymFgDKM-9" value="Subject Name" style="rounded=0;whiteSpace=wrap;html=1;" parent="CoTOya8PfzWXsymFgDKM-1" vertex="1">
          <mxGeometry y="20" width="200" height="50" as="geometry" />
        </mxCell>
        <mxCell id="CoTOya8PfzWXsymFgDKM-11" value="Subject Code" style="rounded=0;whiteSpace=wrap;html=1;" parent="CoTOya8PfzWXsymFgDKM-1" vertex="1">
          <mxGeometry y="70" width="200" height="80" as="geometry" />
        </mxCell>
        <mxCell id="CoTOya8PfzWXsymFgDKM-20" value="Lecture Name" style="rounded=0;whiteSpace=wrap;html=1;" parent="CoTOya8PfzWXsymFgDKM-1" vertex="1">
          <mxGeometry y="140" width="200" height="60" as="geometry" />
        </mxCell>
        <mxCell id="mfava3b_8mkg4uF7YkSu-6" style="edgeStyle=orthogonalEdgeStyle;rounded=0;orthogonalLoop=1;jettySize=auto;html=1;entryX=0;entryY=0.5;entryDx=0;entryDy=0;" edge="1" parent="WIyWlLk6GJQsqaUBKTNV-1" source="CoTOya8PfzWXsymFgDKM-13" target="CoTOya8PfzWXsymFgDKM-38">
          <mxGeometry relative="1" as="geometry" />
        </mxCell>
        <mxCell id="CoTOya8PfzWXsymFgDKM-13" value="Student Information" style="swimlane;whiteSpace=wrap;html=1;" parent="WIyWlLk6GJQsqaUBKTNV-1" vertex="1">
          <mxGeometry x="180" y="480" width="200" height="340" as="geometry" />
        </mxCell>
        <mxCell id="CoTOya8PfzWXsymFgDKM-14" value="Student Name" style="rounded=0;whiteSpace=wrap;html=1;" parent="CoTOya8PfzWXsymFgDKM-13" vertex="1">
          <mxGeometry y="20" width="200" height="50" as="geometry" />
        </mxCell>
        <mxCell id="CoTOya8PfzWXsymFgDKM-15" value="Student ID" style="rounded=0;whiteSpace=wrap;html=1;" parent="CoTOya8PfzWXsymFgDKM-13" vertex="1">
          <mxGeometry y="70" width="200" height="50" as="geometry" />
        </mxCell>
        <mxCell id="CoTOya8PfzWXsymFgDKM-21" value="Student Progrem" style="rounded=0;whiteSpace=wrap;html=1;" parent="CoTOya8PfzWXsymFgDKM-13" vertex="1">
          <mxGeometry y="120" width="200" height="50" as="geometry" />
        </mxCell>
        <mxCell id="CoTOya8PfzWXsymFgDKM-24" value="Subject Name" style="rounded=0;whiteSpace=wrap;html=1;" parent="CoTOya8PfzWXsymFgDKM-13" vertex="1">
          <mxGeometry y="170" width="200" height="50" as="geometry" />
        </mxCell>
        <mxCell id="CoTOya8PfzWXsymFgDKM-25" value="Subject Code" style="rounded=0;whiteSpace=wrap;html=1;" parent="CoTOya8PfzWXsymFgDKM-13" vertex="1">
          <mxGeometry y="210" width="200" height="50" as="geometry" />
        </mxCell>
        <mxCell id="CoTOya8PfzWXsymFgDKM-26" value="Subject Grade" style="rounded=0;whiteSpace=wrap;html=1;" parent="CoTOya8PfzWXsymFgDKM-13" vertex="1">
          <mxGeometry y="250" width="200" height="50" as="geometry" />
        </mxCell>
        <mxCell id="mfava3b_8mkg4uF7YkSu-12" value="GPA" style="rounded=0;whiteSpace=wrap;html=1;" vertex="1" parent="CoTOya8PfzWXsymFgDKM-13">
          <mxGeometry y="290" width="200" height="50" as="geometry" />
        </mxCell>
        <mxCell id="mfava3b_8mkg4uF7YkSu-5" style="edgeStyle=orthogonalEdgeStyle;rounded=0;orthogonalLoop=1;jettySize=auto;html=1;entryX=0;entryY=0.75;entryDx=0;entryDy=0;" edge="1" parent="WIyWlLk6GJQsqaUBKTNV-1" source="CoTOya8PfzWXsymFgDKM-27" target="CoTOya8PfzWXsymFgDKM-15">
          <mxGeometry relative="1" as="geometry" />
        </mxCell>
        <mxCell id="CoTOya8PfzWXsymFgDKM-27" value="Staff" style="swimlane;whiteSpace=wrap;html=1;" parent="WIyWlLk6GJQsqaUBKTNV-1" vertex="1">
          <mxGeometry x="-420" y="200" width="200" height="300" as="geometry" />
        </mxCell>
        <mxCell id="CoTOya8PfzWXsymFgDKM-28" value="Staff Name" style="rounded=0;whiteSpace=wrap;html=1;" parent="CoTOya8PfzWXsymFgDKM-27" vertex="1">
          <mxGeometry y="20" width="200" height="50" as="geometry" />
        </mxCell>
        <mxCell id="CoTOya8PfzWXsymFgDKM-32" value="Subject Name" style="rounded=0;whiteSpace=wrap;html=1;" parent="CoTOya8PfzWXsymFgDKM-27" vertex="1">
          <mxGeometry y="70" width="200" height="50" as="geometry" />
        </mxCell>
        <mxCell id="CoTOya8PfzWXsymFgDKM-33" value="Subject Code" style="rounded=0;whiteSpace=wrap;html=1;" parent="CoTOya8PfzWXsymFgDKM-27" vertex="1">
          <mxGeometry y="120" width="200" height="50" as="geometry" />
        </mxCell>
        <mxCell id="mfava3b_8mkg4uF7YkSu-14" style="edgeStyle=orthogonalEdgeStyle;rounded=0;orthogonalLoop=1;jettySize=auto;html=1;" edge="1" parent="WIyWlLk6GJQsqaUBKTNV-1" source="CoTOya8PfzWXsymFgDKM-34" target="mfava3b_8mkg4uF7YkSu-15">
          <mxGeometry relative="1" as="geometry">
            <mxPoint x="740" y="540" as="targetPoint" />
          </mxGeometry>
        </mxCell>
        <mxCell id="CoTOya8PfzWXsymFgDKM-34" value="Student" style="swimlane;whiteSpace=wrap;html=1;" parent="WIyWlLk6GJQsqaUBKTNV-1" vertex="1">
          <mxGeometry x="640" y="170" width="200" height="320" as="geometry" />
        </mxCell>
        <mxCell id="CoTOya8PfzWXsymFgDKM-35" value="Student Name" style="rounded=0;whiteSpace=wrap;html=1;" parent="CoTOya8PfzWXsymFgDKM-34" vertex="1">
          <mxGeometry y="20" width="200" height="50" as="geometry" />
        </mxCell>
        <mxCell id="CoTOya8PfzWXsymFgDKM-36" value="Student Id" style="rounded=0;whiteSpace=wrap;html=1;" parent="CoTOya8PfzWXsymFgDKM-34" vertex="1">
          <mxGeometry y="70" width="200" height="50" as="geometry" />
        </mxCell>
        <mxCell id="CoTOya8PfzWXsymFgDKM-37" value="Sem" style="rounded=0;whiteSpace=wrap;html=1;" parent="CoTOya8PfzWXsymFgDKM-34" vertex="1">
          <mxGeometry y="120" width="200" height="50" as="geometry" />
        </mxCell>
        <mxCell id="CoTOya8PfzWXsymFgDKM-38" value="Corse" style="rounded=0;whiteSpace=wrap;html=1;" parent="CoTOya8PfzWXsymFgDKM-34" vertex="1">
          <mxGeometry y="170" width="200" height="50" as="geometry" />
        </mxCell>
        <mxCell id="mfava3b_8mkg4uF7YkSu-2" style="edgeStyle=orthogonalEdgeStyle;rounded=0;orthogonalLoop=1;jettySize=auto;html=1;entryX=0;entryY=0.5;entryDx=0;entryDy=0;" edge="1" parent="WIyWlLk6GJQsqaUBKTNV-1" source="CoTOya8PfzWXsymFgDKM-32" target="CoTOya8PfzWXsymFgDKM-7">
          <mxGeometry relative="1" as="geometry" />
        </mxCell>
        <mxCell id="mfava3b_8mkg4uF7YkSu-7" style="edgeStyle=orthogonalEdgeStyle;rounded=0;orthogonalLoop=1;jettySize=auto;html=1;entryX=0.5;entryY=0;entryDx=0;entryDy=0;" edge="1" parent="WIyWlLk6GJQsqaUBKTNV-1" source="CoTOya8PfzWXsymFgDKM-16" target="CoTOya8PfzWXsymFgDKM-1">
          <mxGeometry relative="1" as="geometry" />
        </mxCell>
        <mxCell id="mfava3b_8mkg4uF7YkSu-8" style="edgeStyle=orthogonalEdgeStyle;rounded=0;orthogonalLoop=1;jettySize=auto;html=1;entryX=0.031;entryY=-0.049;entryDx=0;entryDy=0;entryPerimeter=0;" edge="1" parent="WIyWlLk6GJQsqaUBKTNV-1" source="CoTOya8PfzWXsymFgDKM-9" target="CoTOya8PfzWXsymFgDKM-36">
          <mxGeometry relative="1" as="geometry" />
        </mxCell>
        <mxCell id="mfava3b_8mkg4uF7YkSu-15" value="Sem" style="swimlane;whiteSpace=wrap;html=1;" vertex="1" parent="WIyWlLk6GJQsqaUBKTNV-1">
          <mxGeometry x="640" y="580" width="210" height="240" as="geometry" />
        </mxCell>
        <mxCell id="mfava3b_8mkg4uF7YkSu-16" value="Subject Name&lt;span style=&quot;color: rgba(0, 0, 0, 0); font-family: monospace; font-size: 0px; text-align: start; text-wrap-mode: nowrap;&quot;&gt;%3CmxGraphModel%3E%3Croot%3E%3CmxCell%20id%3D%220%22%2F%3E%3CmxCell%20id%3D%221%22%20parent%3D%220%22%2F%3E%3CmxCell%20id%3D%222%22%20value%3D%22Subject%20Grade%22%20style%3D%22rounded%3D0%3BwhiteSpace%3Dwrap%3Bhtml%3D1%3B%22%20vertex%3D%221%22%20parent%3D%221%22%3E%3CmxGeometry%20x%3D%22180%22%20y%3D%22730%22%20width%3D%22200%22%20height%3D%2250%22%20as%3D%22geometry%22%2F%3E%3C%2FmxCell%3E%3C%2Froot%3E%3C%2FmxGraphModel%3E&lt;/span&gt;" style="rounded=0;whiteSpace=wrap;html=1;" vertex="1" parent="mfava3b_8mkg4uF7YkSu-15">
          <mxGeometry y="20" width="210" height="60" as="geometry" />
        </mxCell>
        <mxCell id="mfava3b_8mkg4uF7YkSu-17" value="Subject Code" style="rounded=0;whiteSpace=wrap;html=1;" vertex="1" parent="mfava3b_8mkg4uF7YkSu-15">
          <mxGeometry y="70" width="210" height="60" as="geometry" />
        </mxCell>
        <mxCell id="mfava3b_8mkg4uF7YkSu-18" value="Subject Grade" style="rounded=0;whiteSpace=wrap;html=1;" vertex="1" parent="mfava3b_8mkg4uF7YkSu-15">
          <mxGeometry y="130" width="210" height="60" as="geometry" />
        </mxCell>
        <mxCell id="mfava3b_8mkg4uF7YkSu-11" value="GPA" style="rounded=0;whiteSpace=wrap;html=1;" vertex="1" parent="mfava3b_8mkg4uF7YkSu-15">
          <mxGeometry y="190" width="210" height="50" as="geometry" />
        </mxCell>
        <mxCell id="mfava3b_8mkg4uF7YkSu-21" value="All sem" style="swimlane;whiteSpace=wrap;html=1;" vertex="1" parent="WIyWlLk6GJQsqaUBKTNV-1">
          <mxGeometry x="870" y="580" width="200" height="200" as="geometry" />
        </mxCell>
        <mxCell id="mfava3b_8mkg4uF7YkSu-20" style="edgeStyle=orthogonalEdgeStyle;rounded=0;orthogonalLoop=1;jettySize=auto;html=1;" edge="1" parent="WIyWlLk6GJQsqaUBKTNV-1" source="mfava3b_8mkg4uF7YkSu-17" target="mfava3b_8mkg4uF7YkSu-21">
          <mxGeometry relative="1" as="geometry">
            <mxPoint x="970" y="680" as="targetPoint" />
          </mxGeometry>
        </mxCell>
        <mxCell id="mfava3b_8mkg4uF7YkSu-22" style="edgeStyle=orthogonalEdgeStyle;rounded=0;orthogonalLoop=1;jettySize=auto;html=1;exitX=0;exitY=0.5;exitDx=0;exitDy=0;entryX=1;entryY=0.75;entryDx=0;entryDy=0;" edge="1" parent="WIyWlLk6GJQsqaUBKTNV-1" source="CoTOya8PfzWXsymFgDKM-21" target="CoTOya8PfzWXsymFgDKM-33">
          <mxGeometry relative="1" as="geometry" />
        </mxCell>
        <mxCell id="mfava3b_8mkg4uF7YkSu-25" style="edgeStyle=orthogonalEdgeStyle;rounded=0;orthogonalLoop=1;jettySize=auto;html=1;exitX=0;exitY=0.5;exitDx=0;exitDy=0;entryX=1;entryY=0.25;entryDx=0;entryDy=0;" edge="1" parent="WIyWlLk6GJQsqaUBKTNV-1" source="CoTOya8PfzWXsymFgDKM-8" target="CoTOya8PfzWXsymFgDKM-33">
          <mxGeometry relative="1" as="geometry">
            <Array as="points">
              <mxPoint x="30" y="75" />
              <mxPoint x="30" y="333" />
            </Array>
          </mxGeometry>
        </mxCell>
      </root>
    </mxGraphModel>
  </diagram>
</mxfile>
